<svg xmlns="http://www.w3.org/2000/svg" xmlns:xlink="http://www.w3.org/1999/xlink" width="1024" zoomAndPan="magnify" viewBox="0 0 768 767.999994" height="1024" preserveAspectRatio="xMidYMid meet" version="1.0"><defs><g/></defs><g fill="#000000" fill-opacity="1"><g transform="translate(740.773454, 764.899991)"><g/></g></g><g fill="#000000" fill-opacity="1"><g transform="translate(743.248438, 764.899991)"><g/></g></g><g fill="#000000" fill-opacity="1"><g transform="translate(745.723421, 764.899991)"><g/></g></g><g fill="#000000" fill-opacity="1"><g transform="translate(748.198404, 764.899991)"><g/></g></g><g fill="#000000" fill-opacity="1"><g transform="translate(750.673387, 764.899991)"><g/></g></g><g fill="#000000" fill-opacity="1"><g transform="translate(753.148371, 764.899991)"><g/></g></g><g fill="#000000" fill-opacity="1"><g transform="translate(755.623354, 764.899991)"><g/></g></g><g fill="#000000" fill-opacity="1"><g transform="translate(758.098337, 764.899991)"><g/></g></g><g fill="#000000" fill-opacity="1"><g transform="translate(760.573321, 764.899991)"><g/></g></g><g fill="#000000" fill-opacity="1"><g transform="translate(763.048304, 764.899991)"><g/></g></g><g fill="#000000" fill-opacity="1"><g transform="translate(765.523287, 764.899991)"><g/></g></g><path stroke-linecap="butt" transform="matrix(0.75, 0, 0, 0.75, 4.142581, 120.750014)" fill="none" stroke-linejoin="miter" d="M 37.585936 183.99999 L 107.856773 183.99999 L 107.856773 492.395839 L 293.335948 492.395839 L 285.867198 535.000008 L 37.585936 535.000008 Z M 338.460951 183.99999 L 476.434916 183.99999 C 500.841167 183.99999 522.30471 186.942699 540.830752 192.817699 C 559.356795 198.614574 574.783879 206.6927 587.106796 217.057284 C 599.513047 227.421868 608.820339 239.624993 615.023464 253.661452 C 621.22659 267.70312 624.325548 282.92187 624.325548 299.328121 C 624.325548 316.062497 621.22659 331.442706 615.023464 345.484373 C 608.820339 359.520832 599.513047 371.640625 587.106796 381.84375 C 574.783879 392.046876 559.356795 400.083334 540.830752 405.963543 C 522.30471 411.75521 500.841167 414.656252 476.434916 414.656252 L 408.731787 414.656252 L 408.731787 535.000008 L 338.460951 535.000008 Z M 476.434916 372.052083 C 487.127625 372.052083 496.882833 370.296875 505.695334 366.786458 C 514.591168 363.276041 522.30471 358.255207 528.83596 351.729165 C 535.362002 345.197915 540.382836 337.52604 543.893252 328.713539 C 547.403669 319.812497 549.158878 310.02083 549.158878 299.328121 C 549.158878 288.635412 547.403669 278.885412 543.893252 270.067703 C 540.382836 261.171869 535.362002 253.458327 528.83596 246.932285 C 522.30471 240.401035 514.591168 235.380201 505.695334 231.869784 C 496.882833 228.359368 487.127625 226.609368 476.434916 226.609368 L 408.731787 226.609368 L 408.731787 372.052083 Z M 852.440143 545.036467 C 825.424516 545.036467 800.289098 540.1823 777.028681 530.468758 C 753.768263 520.755215 733.606803 507.578131 716.549511 490.927089 C 699.492218 474.192713 686.106801 454.567712 676.393259 432.041669 C 666.76305 409.432293 661.945342 385.229167 661.945342 359.437499 C 661.945342 333.729164 666.76305 309.61458 676.393259 287.083329 C 686.106801 264.479161 699.492218 244.807285 716.549511 228.078118 C 733.606803 211.343742 753.768263 198.161449 777.028681 188.531241 C 800.289098 178.817698 825.424516 173.963532 852.440143 173.963532 C 876.846394 173.963532 898.148478 177.802073 916.346396 185.473949 C 934.632855 193.145824 949.773481 201.510408 961.768273 210.5677 C 975.804732 221.260409 987.846399 233.302076 997.882858 246.687494 L 975.356815 269.213536 C 966.627648 259.171869 956.585981 249.989577 945.242231 241.66666 C 935.528688 234.973951 923.737021 228.729159 909.862021 222.932284 C 895.98702 217.057284 880.190144 214.119784 862.48181 214.119784 C 845.424517 214.119784 829.38285 217.546867 814.367224 224.401034 C 799.351598 231.260409 786.044306 241.052077 774.455764 253.786452 C 762.945347 266.437494 753.846388 281.697912 747.153679 299.572913 C 740.46097 317.447914 737.11722 337.40104 737.11722 359.437499 C 737.11722 381.557292 740.46097 401.557293 747.153679 419.427085 C 753.846388 437.302086 762.945347 452.609379 774.455764 465.338546 C 786.044306 477.989588 799.351598 487.744797 814.367224 494.598964 C 829.38285 501.453131 845.424517 504.885423 862.48181 504.885423 C 881.903686 504.885423 898.882853 501.822923 913.408896 495.703131 C 927.940146 489.500006 940.221397 482.520839 950.263064 474.76563 C 961.606815 466.114588 971.643274 456.114587 980.377649 444.770837 L 1005.476609 467.296879 C 995.434941 481.989588 983.028691 495.046881 968.257857 506.473965 C 955.606814 516.104174 939.731814 524.963549 920.632854 533.041674 C 901.617228 541.041675 878.888061 545.036467 852.440143 545.036467 Z M 852.440143 545.036467 " stroke="#ffbd59" stroke-width="16.297613" stroke-opacity="1" stroke-miterlimit="4"/><g fill="#ffde59" fill-opacity="1"><g transform="translate(4.142581, 521.999994)"><g><path d="M 28.203125 -263.265625 L 80.859375 -263.265625 L 80.859375 -31.96875 L 220.015625 -31.96875 L 214.375 0 L 28.203125 0 Z M 28.203125 -263.265625 "/></g></g></g><g fill="#ffde59" fill-opacity="1"><g transform="translate(229.799165, 521.999994)"><g><path d="M 28.203125 -263.265625 L 131.640625 -263.265625 C 149.941406 -263.265625 166.046875 -261.070312 179.953125 -256.6875 C 193.867188 -252.300781 205.46875 -246.21875 214.75 -238.4375 C 224.03125 -230.664062 230.988281 -221.515625 235.625 -210.984375 C 240.257812 -200.453125 242.578125 -189.046875 242.578125 -176.765625 C 242.578125 -164.222656 240.257812 -152.6875 235.625 -142.15625 C 230.988281 -131.632812 224.03125 -122.546875 214.75 -114.890625 C 205.46875 -107.242188 193.867188 -101.226562 179.953125 -96.84375 C 166.046875 -92.457031 149.941406 -90.265625 131.640625 -90.265625 L 80.859375 -90.265625 L 80.859375 0 L 28.203125 0 Z M 131.640625 -122.234375 C 139.660156 -122.234375 146.988281 -123.546875 153.625 -126.171875 C 160.269531 -128.804688 166.035156 -132.566406 170.921875 -137.453125 C 175.816406 -142.347656 179.582031 -148.117188 182.21875 -154.765625 C 184.851562 -161.410156 186.171875 -168.742188 186.171875 -176.765625 C 186.171875 -184.785156 184.851562 -192.117188 182.21875 -198.765625 C 179.582031 -205.410156 175.816406 -211.175781 170.921875 -216.0625 C 166.035156 -220.957031 160.269531 -224.71875 153.625 -227.34375 C 146.988281 -229.976562 139.660156 -231.296875 131.640625 -231.296875 L 80.859375 -231.296875 L 80.859375 -122.234375 Z M 131.640625 -122.234375 "/></g></g></g><g fill="#ffde59" fill-opacity="1"><g transform="translate(485.543317, 521.999994)"><g><path d="M 157.953125 7.515625 C 137.648438 7.515625 118.785156 3.878906 101.359375 -3.390625 C 83.929688 -10.660156 68.820312 -20.5625 56.03125 -33.09375 C 43.25 -45.632812 33.222656 -60.363281 25.953125 -77.28125 C 18.679688 -94.207031 15.046875 -112.328125 15.046875 -131.640625 C 15.046875 -150.941406 18.679688 -169.050781 25.953125 -185.96875 C 33.222656 -202.894531 43.25 -217.625 56.03125 -230.15625 C 68.820312 -242.695312 83.929688 -252.601562 101.359375 -259.875 C 118.785156 -267.144531 137.648438 -270.78125 157.953125 -270.78125 C 176.265625 -270.78125 192.25 -267.894531 205.90625 -262.125 C 219.570312 -256.363281 230.921875 -250.097656 239.953125 -243.328125 C 250.484375 -235.304688 259.507812 -226.28125 267.03125 -216.25 L 250.109375 -199.328125 C 243.585938 -206.847656 236.0625 -213.742188 227.53125 -220.015625 C 220.257812 -225.023438 211.421875 -229.722656 201.015625 -234.109375 C 190.617188 -238.503906 178.773438 -240.703125 165.484375 -240.703125 C 152.691406 -240.703125 140.65625 -238.128906 129.375 -232.984375 C 118.09375 -227.847656 108.125 -220.515625 99.46875 -210.984375 C 90.820312 -201.460938 83.988281 -189.992188 78.96875 -176.578125 C 73.957031 -163.160156 71.453125 -148.179688 71.453125 -131.640625 C 71.453125 -115.085938 73.957031 -100.101562 78.96875 -86.6875 C 83.988281 -73.269531 90.820312 -61.796875 99.46875 -52.265625 C 108.125 -42.742188 118.09375 -35.410156 129.375 -30.265625 C 140.65625 -25.128906 152.691406 -22.5625 165.484375 -22.5625 C 180.023438 -22.5625 192.75 -24.878906 203.65625 -29.515625 C 214.5625 -34.160156 223.773438 -39.363281 231.296875 -45.125 C 239.816406 -51.644531 247.335938 -59.171875 253.859375 -67.703125 L 272.671875 -50.765625 C 265.148438 -39.734375 255.875 -29.957031 244.84375 -21.4375 C 235.3125 -14.164062 223.398438 -7.519531 209.109375 -1.5 C 194.816406 4.507812 177.765625 7.515625 157.953125 7.515625 Z M 157.953125 7.515625 "/></g></g></g></svg>